<?xml version="1.0" encoding="iso-8859-1"?>
<!-- Generator: Adobe Illustrator 21.0.0, SVG Export Plug-In . SVG Version: 6.00 Build 0)  -->
<svg xmlns="http://www.w3.org/2000/svg" xmlns:xlink="http://www.w3.org/1999/xlink" version="1.1" id="Capa_1" x="0px" y="0px" viewBox="0 0 511.955 511.955" style="enable-background:new 0 0 511.955 511.955;" xml:space="preserve" width="512" height="512">
<g>
	<g>
		<path style="fill:#E4EAF8;" d="M205.764,111.233c-73.9,0-133.968,59.89-133.968,133.967v19.912c0,21.48-8.533,42.08-23.722,57.269    L29.63,340.826c-7.812,7.812-2.279,21.169,8.768,21.169h26.527c3.794,0,6.87,3.076,6.87,6.87v22.757    c0,34.007,27.824,61.832,61.832,61.832c13.259,0,24.045,10.745,24.045,24.045v19.753c0,4.032,3.268,7.3,7.3,7.3h114.109    c4.091,0,7.407-3.316,7.407-7.407l0-50.659c0-19.861,6.62-39.412,19.761-54.304c20.836-23.611,33.483-54.617,33.483-88.583    v-58.397C339.733,171.213,279.753,111.233,205.764,111.233z"/>
		<g>
			<path style="fill:#CCD2DB;" d="M49.505,340.826l18.444-18.444c15.189-15.189,23.722-35.789,23.722-57.269V245.2     c0-70.727,54.759-128.517,124.032-133.6c-3.282-0.241-6.595-0.367-9.939-0.367c-73.9,0-133.968,59.89-133.968,133.967v19.912     c0,21.48-8.533,42.08-23.722,57.269L29.63,340.826c-7.812,7.812-2.279,21.169,8.769,21.169h19.875     C47.226,361.995,41.693,348.638,49.505,340.826z"/>
			<path style="fill:#CCD2DB;" d="M177.547,497.251v-19.752c0-13.3-10.786-24.045-24.045-24.045     c-34.007,0-61.832-27.824-61.832-61.832v-22.757c0-3.794-3.076-6.87-6.87-6.87H64.926c3.794,0,6.87,3.076,6.87,6.87v22.757     c0,34.008,27.824,61.832,61.832,61.832c13.259,0,24.045,10.745,24.045,24.045v19.752c0,4.031,3.268,7.3,7.3,7.3h19.875     C180.815,504.551,177.547,501.283,177.547,497.251z"/>
		</g>
		<path style="fill:#1DD1A1;" d="M286.564,103.856h-37.701c-1.199,0-2.172-0.972-2.172-2.172V9.757c0-2.244-2.988-3.014-4.073-1.049    l-67.572,122.451c-0.799,1.447,0.248,3.221,1.901,3.221h37.702c1.199,0,2.171,0.972,2.171,2.171v91.927    c0,2.244,2.988,3.014,4.073,1.049l67.572-122.45C289.264,105.629,288.217,103.856,286.564,103.856z"/>
		<path style="fill:#FF6B6B;" d="M399.192,349.556l-3.904-30.865c-0.124-0.982,0.571-1.878,1.553-2.003l75.258-9.519    c1.837-0.232,2.158-2.759,0.437-3.443l-107.244-42.639c-1.268-0.504-2.611,0.537-2.44,1.89l3.904,30.865    c0.124,0.982-0.571,1.878-1.553,2.002l-75.258,9.519c-1.837,0.232-2.158,2.759-0.437,3.443l107.244,42.64    C398.02,351.95,399.363,350.909,399.192,349.556z"/>
		<path style="fill:#FECA57;" d="M435.245,171.377l-28.416-24.777c-0.904-0.788-0.814-2.371,0.201-3.534l77.781-89.204    c1.899-2.178,0.298-4.889-2.182-3.695l-154.537,74.415c-1.826,0.879-2.538,3.288-1.292,4.375l28.416,24.778    c0.904,0.788,0.814,2.37-0.201,3.534l-77.781,89.204c-1.899,2.178-0.298,4.889,2.182,3.695l154.537-74.415    C435.78,174.872,436.491,172.463,435.245,171.377z"/>
		<g>
			<path style="fill:#15BA8B;" d="M195.046,131.159l51.644-93.588V9.757c0-2.244-2.989-3.014-4.073-1.049l-67.572,122.451     c-0.799,1.447,0.248,3.221,1.901,3.221h20C195.294,134.379,194.248,132.606,195.046,131.159z"/>
			<path style="fill:#15BA8B;" d="M236.82,136.551c0-1.199-0.972-2.171-2.171-2.171h-20c1.199,0,2.171,0.972,2.171,2.171v91.927     c0,2.244,2.989,3.014,4.073,1.049l15.927-28.863V136.551z"/>
		</g>
		<g>
			<path style="fill:#EE5253;" d="M366.626,294.754l16.411-2.076c0.982-0.124,1.677-1.021,1.553-2.002l-2.919-23.076l-16.379-6.512     c-1.267-0.504-2.611,0.537-2.44,1.89l3.904,30.865C366.797,294.165,366.743,294.474,366.626,294.754z"/>
			<path style="fill:#EE5253;" d="M307.342,305.64c-1.044-0.415-1.326-1.504-0.985-2.352l-16.411,2.076     c-1.837,0.232-2.158,2.759-0.437,3.443l107.244,42.64c1.268,0.504,2.611-0.537,2.44-1.89l-0.985-7.789L307.342,305.64z"/>
		</g>
		<path style="fill:#F4B537;" d="M375.015,157.268c1.015-1.164,1.104-2.746,0.201-3.534l-28.416-24.778    c-1.246-1.086-0.534-3.495,1.292-4.375l129.376-62.3l7.343-8.421c1.899-2.177,0.298-4.888-2.182-3.695l-154.538,74.416    c-1.826,0.879-2.538,3.288-1.292,4.375l28.416,24.778c0.904,0.788,0.814,2.37-0.201,3.534l-77.781,89.204    c-1.899,2.177-0.298,4.888,2.182,3.695l25.161-12.116L375.015,157.268z"/>
	</g>
	<g>
		<path d="M38.713,369.736h25.818v22.057c0,38.149,31.036,69.186,69.186,69.186c9.092,0,16.488,7.396,16.488,16.488v19.706    c0,8.151,6.631,14.782,14.782,14.782h36.101c4.143,0,7.5-3.358,7.5-7.5s-3.357-7.5-7.5-7.5h-35.883v-19.488    c0-17.362-14.126-31.488-31.488-31.488c-29.878,0-54.186-24.308-54.186-54.186V369.09c0-7.915-6.438-14.354-14.354-14.354H38.713    c-4.352,0-6.525-5.236-3.443-8.315l18.4-18.401c16.677-16.677,25.861-38.851,25.861-62.437v-19.865    c0-56.947,37.187-105.549,90.451-121.05l-1.529,2.771c-3.553,6.439,1.13,14.345,8.468,14.345h32.373v86.599    c0,9.897,13.344,13.366,18.139,4.673c5.052-9.154,45.146-81.811,50.203-90.975c17.063,11.85,30.862,27.615,40.346,46.121    l-46.428,53.246c-7.338,8.416,1.404,20.043,11.089,15.381l48.599-23.402c0.395,4.081,0.594,8.19,0.594,12.293v46.687    l-42.857,5.421c-9.567,1.21-11.008,14.377-2.268,17.853l41.914,16.665c-4.681,20.348-14.398,39.273-28.316,55.044    c-13.924,15.778-21.592,36.78-21.592,59.137v50.429h-42.628c-4.143,0-7.5,3.358-7.5,7.5s3.357,7.5,7.5,7.5h42.739    c8.21,0,14.889-6.679,14.889-14.889v-50.54c0-18.7,6.335-36.177,17.838-49.212c15.063-17.069,25.723-37.444,31.147-59.373    l51.253,20.378c6.583,2.62,13.532-2.829,12.651-9.799c0,0,0-0.001,0-0.002l-3.188-25.202l69.594-8.803    c9.499-1.199,11.147-14.322,2.269-17.853l-107.244-42.64c-6.549-2.607-13.537,2.79-12.651,9.8l3.188,25.202l-11.737,1.485v-44.79    c0-6.413-0.439-12.839-1.299-19.176l91.643-44.129c6.633-3.193,8.35-12.096,2.967-16.787l-24.398-21.274l74.69-85.659    c7.337-8.415-1.403-20.046-11.09-15.381l-154.539,74.416c-6.627,3.194-8.347,12.094-2.965,16.785l24.399,21.276l-17.742,20.348    c-10.704-18.899-25.561-34.997-43.594-47.232l10.1-18.303c3.549-6.439-1.135-14.341-8.47-14.341h-32.373V80.803    c0-4.142-3.357-7.5-7.5-7.5s-7.5,3.358-7.5,7.5v20.786c0,5.333,4.338,9.671,9.671,9.671h28.676l-53.217,96.437v-71.241    c0-5.333-4.339-9.672-9.672-9.672h-28.675l53.217-96.438v15.458c0,4.142,3.357,7.5,7.5,7.5s7.5-3.358,7.5-7.5V9.661    c0-9.94-13.325-13.399-18.14-4.672l-56.27,101.97c-31.378,5.839-60.035,22.304-81.024,46.645    c-22.054,25.576-34.199,58.289-34.199,92.113v19.865c0,19.579-7.624,37.986-21.469,51.83l-18.399,18.401    C12.017,348.458,21.209,369.736,38.713,369.736z M366.118,303.189c5.083-0.643,8.695-5.3,8.053-10.384l-2.69-21.272l77.668,30.88    l-53.278,6.739c-5.08,0.645-8.691,5.302-8.049,10.385l2.69,21.272l-77.668-30.881C321.18,308.873,358.474,304.156,366.118,303.189    z M430.29,176.934l0.001,0.001c-0.003-0.002-0.005-0.005-0.008-0.007L430.29,176.934z M360.642,162.1    c3.746-4.297,3.53-10.582-0.524-14.115l-22.615-19.72l124.75-60.072l-60.902,69.847c-3.729,4.277-3.495,10.608,0.523,14.116    l22.615,19.719L299.74,231.947C306.865,223.775,353.666,170.101,360.642,162.1z"/>
	</g>
</g>















</svg>
