<?xml version="1.0" encoding="iso-8859-1"?>
<!-- Generator: Adobe Illustrator 21.0.0, SVG Export Plug-In . SVG Version: 6.00 Build 0)  -->
<svg xmlns="http://www.w3.org/2000/svg" xmlns:xlink="http://www.w3.org/1999/xlink" version="1.1" id="Capa_1" x="0px" y="0px" viewBox="0 0 511.969 511.969" style="enable-background:new 0 0 511.969 511.969;" xml:space="preserve" width="512" height="512">
<g>
	<g>
		<path style="fill:#E4EAF8;" d="M212.647,65.437c-82.508,0-149.572,66.865-149.572,149.57v22.231    c0,23.982-9.527,46.981-26.484,63.939L15.998,321.77c-8.722,8.722-2.545,23.634,9.79,23.634h29.617    c4.236,0,7.671,3.434,7.671,7.671v25.408c0,37.968,31.065,69.033,69.033,69.033c14.803,0,26.845,11.996,26.845,26.845v22.053    c0,4.501,3.649,8.15,8.15,8.15h127.4c4.567,0,8.269-3.702,8.269-8.269l0-56.559c0-22.174,7.391-44.002,22.063-60.628    c23.263-26.36,37.383-60.978,37.383-98.901v-65.198C362.219,132.403,295.253,65.437,212.647,65.437z"/>
		<g>
			<path style="fill:#CCD2DB;" d="M35.873,321.771l20.593-20.593c16.958-16.958,26.484-39.957,26.484-63.939v-22.231     c0-79.357,61.748-144.12,139.636-149.234c-3.286-0.216-6.598-0.337-9.939-0.337c-82.508,0-149.572,66.865-149.572,149.57v22.231     c0,23.982-9.527,46.981-26.484,63.939l-20.593,20.593c-8.722,8.722-2.545,23.635,9.79,23.635h19.875     C33.329,345.405,27.152,330.492,35.873,321.771z"/>
			<path style="fill:#CCD2DB;" d="M178.829,496.415v-22.053c0-14.849-12.042-26.845-26.845-26.845     c-37.968,0-69.033-31.065-69.033-69.033v-25.408c0-4.236-3.434-7.67-7.671-7.67H55.404c4.236,0,7.671,3.434,7.671,7.67v25.408     c0,37.968,31.065,69.033,69.033,69.033c14.803,0,26.845,11.996,26.845,26.845v22.053c0,4.501,3.649,8.15,8.15,8.15h19.875     C182.477,504.565,178.829,500.916,178.829,496.415z"/>
		</g>
		<path style="fill:#338DEF;" d="M500.073,125.856c-1.139-24.293-21.018-43.906-45.324-44.737    c-4.756-0.163-9.357,0.383-13.712,1.536c-1.003,0.266-1.962-0.505-1.96-1.543c0-0.007,0-0.014,0-0.022    c0-34.929-28.317-63.248-63.249-63.248c-16.402,0-32.332,7.253-43.566,17.493c2.352,5.415,3.663,11.388,3.663,17.668    c0,0.005,0,0.01,0,0.015c-0.001,0.729,0.672,1.27,1.376,1.083c3.058-0.81,6.288-1.193,9.627-1.079    c17.065,0.584,30.022,13.354,30.822,30.411c0.888,18.956-12.219,32.603-30.978,32.603c-2.242,0-117.943,0-134.425,0    c-0.482,2.354-0.799,6.768-0.915,9.236c-1.283,27.315,20.485,49.869,47.52,49.869c4.993,0,190.757,0,194.15,0    C479.821,175.141,501.338,152.855,500.073,125.856z"/>
		<path style="fill:#338DEF;" d="M500.073,125.856c-1.139-24.293-21.018-43.906-45.324-44.737    c-4.756-0.163-9.357,0.383-13.712,1.536c-1.003,0.266-1.962-0.505-1.96-1.543c0-0.007,0-0.014,0-0.022    c0-34.929-28.317-63.248-63.249-63.248c-16.402,0-32.332,7.253-43.566,17.493c2.352,5.415,3.663,11.388,3.663,17.668    c0,0.005,0,0.01,0,0.015c-0.001,0.729,0.672,1.27,1.376,1.083c3.058-0.81,6.288-1.193,9.627-1.079    c17.065,0.584,30.022,13.354,30.822,30.411c0.888,18.956-12.219,32.603-30.978,32.603c-2.242,0-117.943,0-134.425,0    c-0.482,2.354-0.799,6.768-0.915,9.236c-1.283,27.315,20.485,49.869,47.52,49.869c4.993,0,190.757,0,194.15,0    C479.821,175.141,501.338,152.855,500.073,125.856z"/>
		<path style="fill:#1C78D3;" d="M399.729,82.497c-1.198-25.575-20.895-46.611-45.826-50.013c-0.983-3.085-2.2-6.066-3.617-8.931    c-6.722,3.028-12.87,7.084-18.023,11.781c2.352,5.415,3.663,11.388,3.663,17.668c0,0.005,0,0.01,0,0.015    c-0.001,0.729,0.672,1.27,1.376,1.083c3.058-0.81,6.288-1.193,9.627-1.079c17.065,0.584,30.022,13.354,30.822,30.411    c0.888,18.956-12.219,32.603-30.978,32.603c-2.242,0-117.943,0-134.425,0c-0.482,2.354-0.799,6.768-0.915,9.236    c-0.207,4.404,0.194,8.682,1.111,12.764h134.229C376.325,138.036,401.179,113.458,399.729,82.497z"/>
		<path style="fill:#54A0FF;" d="M379.751,83.433c-0.799-17.056-14.757-30.826-31.822-31.41c-3.339-0.114-6.57,0.269-9.627,1.079    c-0.704,0.187-1.377-0.355-1.376-1.083c0-0.005,0-0.01,0-0.015c0-24.524-19.882-44.407-44.407-44.407    c-20.064,0-37.008,13.309-42.512,31.577c-0.477,1.583-2.08,2.558-3.698,2.214c-9.562-2.03-19.716,1.304-26.185,9.234    c-0.818,1.003-2.126,1.44-3.398,1.199c-20.26-3.843-38.698,11.372-39.629,31.204c-0.901,19.178,14.383,35.013,33.364,35.013    c3.506,0,133.932,0,136.314,0C365.532,118.036,380.639,102.389,379.751,83.433z"/>
		<path style="fill:#338DEF;" d="M197.096,83.023c0.931-19.832,19.369-35.047,39.629-31.204c1.272,0.241,2.58-0.196,3.398-1.199    c6.469-7.93,16.623-11.263,26.185-9.234c1.617,0.344,3.221-0.631,3.698-2.214c4.559-15.133,16.972-26.854,32.503-30.434    c-3.213-0.739-6.553-1.143-9.99-1.143c-20.064,0-37.009,13.309-42.512,31.577c-0.477,1.583-2.081,2.558-3.698,2.214    c-9.562-2.03-19.716,1.304-26.185,9.234c-0.818,1.003-2.126,1.44-3.398,1.199c-20.26-3.843-38.698,11.372-39.629,31.204    c-0.901,19.178,14.383,35.013,33.364,35.013c0.819,0,8.572,0,20,0C211.479,118.036,196.195,102.201,197.096,83.023z"/>
	</g>
	<g>
		<path d="M446.2,73.926c-5.323-53.405-66.459-81.811-110.705-51.052C326.154,9.084,310.365,0,292.491,0    c-21.453,0-40.875,13.545-48.479,33.363c-10.532-1.029-20.887,2.863-28.162,10.63c-15.813-2.099-31.048,5.18-39.573,18.09    c-33.3,7.904-63.489,26.798-85.299,53.455c-22.847,27.925-35.43,63.216-35.43,99.374v22.231c0,22.15-8.626,42.974-24.288,58.635    l-20.593,20.593c-13.445,13.448-3.946,36.438,15.094,36.438h29.617c0.094,0,0.17,0.077,0.17,0.171v25.407    c0,42.201,34.333,76.533,76.533,76.533c10.667,0,19.346,8.678,19.346,19.345v22.053c0,8.629,7.021,15.65,15.649,15.65h44.276    c4.143,0,7.5-3.358,7.5-7.5s-3.357-7.5-7.5-7.5h-44.276c-0.358,0-0.649-0.292-0.649-0.65v-22.053    c0-18.938-15.407-34.345-34.346-34.345c-33.93,0-61.533-27.604-61.533-61.533V352.98c0-8.365-6.806-15.171-15.17-15.171H25.761    c-5.651,0-8.484-6.834-4.486-10.832l20.593-20.593c18.495-18.495,28.681-43.085,28.681-69.242v-22.231    c0-62.07,41.043-117.079,99.3-135.501c-2.787,22.178,12.614,42.118,34.062,45.519c-1.438,31.8,23.847,57.615,55.018,57.615h92.053    c2.465,10.576,3.712,21.439,3.712,32.368v18.886c0,4.142,3.357,7.5,7.5,7.5s7.5-3.358,7.5-7.5v-18.886    c0-10.908-1.136-21.755-3.361-32.368h86.746c31.098,0,55.924-25.886,54.462-57.136C506.084,94.401,478.19,69.895,446.2,73.926z     M212.322,110.44c-0.004,0-0.007,0-0.011,0c-8.008,0-14.654-1.773-20.621-8.025c-17.402-18.242-0.948-47.978,23.613-43.323    c4.002,0.758,8.063-0.71,10.604-3.828c4.561-5.59,11.771-8.135,18.813-6.639c5.379,1.146,10.844-2.1,12.439-7.386    c4.654-15.45,19.183-26.24,35.33-26.24c20.386,0,36.908,16.598,36.908,36.912c-0.004,2.702,1.22,5.196,3.355,6.843    c0,0,0.001,0,0.001,0.001c0,0,0,0,0.001,0c1.942,1.497,4.468,2.134,7.032,1.582c27.79-5.959,41.937,24.887,25.421,42.196    c-4.864,5.098-11.421,7.905-18.463,7.905H212.322z M453.077,167.545c-4.797,0-186.414,0-194.149,0    c-22.305,0-41.101-18.408-40.023-42.104h127.843c28.769,0,48.216-29.125,37.635-55.474c-6.308-15.707-22.268-26.737-40.506-25.458    c-0.374-2.619-1.07-5.626-1.776-7.904c36.489-27.773,89.451-1.668,89.451,44.406c-0.006,5.975,5.625,10.326,11.38,8.799    c24.549-6.496,48.467,11.62,49.624,36.302C493.622,148.872,475.535,167.545,453.077,167.545z"/>
		<path d="M468.105,216.441c4.143,0,7.5-3.358,7.5-7.5v-10.137c0-4.142-3.357-7.5-7.5-7.5s-7.5,3.358-7.5,7.5v10.137    C460.605,213.083,463.963,216.441,468.105,216.441z"/>
		<path d="M460.605,252.608c0,4.142,3.357,7.5,7.5,7.5s7.5-3.358,7.5-7.5v-10.137c0-4.142-3.357-7.5-7.5-7.5s-7.5,3.358-7.5,7.5    V252.608z"/>
		<path d="M460.605,296.275c0,4.142,3.357,7.5,7.5,7.5s7.5-3.358,7.5-7.5v-10.137c0-4.142-3.357-7.5-7.5-7.5s-7.5,3.358-7.5,7.5    V296.275z"/>
		<path d="M430.968,216.441c4.143,0,7.5-3.358,7.5-7.5v-10.137c0-4.142-3.357-7.5-7.5-7.5s-7.5,3.358-7.5,7.5v10.137    C423.468,213.083,426.826,216.441,430.968,216.441z"/>
		<path d="M423.468,252.608c0,4.142,3.357,7.5,7.5,7.5s7.5-3.358,7.5-7.5v-10.137c0-4.142-3.357-7.5-7.5-7.5s-7.5,3.358-7.5,7.5    V252.608z"/>
		<path d="M423.468,296.275c0,4.142,3.357,7.5,7.5,7.5s7.5-3.358,7.5-7.5v-10.137c0-4.142-3.357-7.5-7.5-7.5s-7.5,3.358-7.5,7.5    V296.275z"/>
		<path d="M393.832,216.441c4.143,0,7.5-3.358,7.5-7.5v-10.137c0-4.142-3.357-7.5-7.5-7.5s-7.5,3.358-7.5,7.5v10.137    C386.332,213.083,389.689,216.441,393.832,216.441z"/>
		<path d="M386.332,252.608c0,4.142,3.357,7.5,7.5,7.5s7.5-3.358,7.5-7.5v-10.137c0-4.142-3.357-7.5-7.5-7.5s-7.5,3.358-7.5,7.5    V252.608z"/>
		<path d="M386.332,296.275c0,4.142,3.357,7.5,7.5,7.5s7.5-3.358,7.5-7.5v-10.137c0-4.142-3.357-7.5-7.5-7.5s-7.5,3.358-7.5,7.5    V296.275z"/>
		<path d="M326.06,133.406c-4.143,0-7.5,3.358-7.5,7.5v10.137c0,4.142,3.357,7.5,7.5,7.5s7.5-3.358,7.5-7.5v-10.137    C333.56,136.764,330.203,133.406,326.06,133.406z"/>
		<path d="M326.06,221.51c4.143,0,7.5-3.358,7.5-7.5v-10.137c0-4.142-3.357-7.5-7.5-7.5s-7.5,3.358-7.5,7.5v10.137    C318.56,218.152,321.918,221.51,326.06,221.51z"/>
		<path d="M318.56,257.677c0,4.142,3.357,7.5,7.5,7.5s7.5-3.358,7.5-7.5V247.54c0-4.142-3.357-7.5-7.5-7.5s-7.5,3.358-7.5,7.5    V257.677z"/>
		<path d="M288.923,133.406c-4.143,0-7.5,3.358-7.5,7.5v10.137c0,4.142,3.357,7.5,7.5,7.5s7.5-3.358,7.5-7.5v-10.137    C296.423,136.764,293.066,133.406,288.923,133.406z"/>
		<path d="M288.923,221.51c4.143,0,7.5-3.358,7.5-7.5v-10.137c0-4.142-3.357-7.5-7.5-7.5s-7.5,3.358-7.5,7.5v10.137    C281.423,218.152,284.781,221.51,288.923,221.51z"/>
		<path d="M281.423,257.677c0,4.142,3.357,7.5,7.5,7.5s7.5-3.358,7.5-7.5V247.54c0-4.142-3.357-7.5-7.5-7.5s-7.5,3.358-7.5,7.5    V257.677z"/>
		<path d="M251.787,133.406c-4.143,0-7.5,3.358-7.5,7.5v10.137c0,4.142,3.357,7.5,7.5,7.5s7.5-3.358,7.5-7.5v-10.137    C259.287,136.764,255.929,133.406,251.787,133.406z"/>
		<path d="M251.787,221.51c4.143,0,7.5-3.358,7.5-7.5v-10.137c0-4.142-3.357-7.5-7.5-7.5s-7.5,3.358-7.5,7.5v10.137    C244.287,218.152,247.644,221.51,251.787,221.51z"/>
		<path d="M244.287,257.677c0,4.142,3.357,7.5,7.5,7.5s7.5-3.358,7.5-7.5V247.54c0-4.142-3.357-7.5-7.5-7.5s-7.5,3.358-7.5,7.5    V257.677z"/>
		<path d="M238.853,504.469c0,4.142,3.357,7.5,7.5,7.5h48.123c8.695,0,15.77-7.074,15.77-15.769v-56.56    c0-21.146,7.169-40.915,20.187-55.666c25.317-28.688,39.26-65.574,39.26-103.863v-11.312c0-4.142-3.357-7.5-7.5-7.5    s-7.5,3.358-7.5,7.5v11.312c0,34.631-12.609,67.992-35.506,93.938c-15.438,17.493-23.94,40.787-23.94,65.591v56.56    c0,0.424-0.346,0.769-0.77,0.769h-48.123C242.211,496.969,238.853,500.327,238.853,504.469z"/>
	</g>
</g>















</svg>
