<?xml version="1.0" encoding="iso-8859-1"?>
<!-- Generator: Adobe Illustrator 21.0.0, SVG Export Plug-In . SVG Version: 6.00 Build 0)  -->
<svg xmlns="http://www.w3.org/2000/svg" xmlns:xlink="http://www.w3.org/1999/xlink" version="1.1" id="Capa_1" x="0px" y="0px" viewBox="0 0 511.966 511.966" style="enable-background:new 0 0 511.966 511.966;" xml:space="preserve" width="512" height="512">
<g>
	<g>
		<path style="fill:#E4EAF8;" d="M183.667,63.411c-72.401,0-131.25,58.674-131.25,131.248v19.508c0,21.044-8.36,41.226-23.24,56.107    l-18.07,18.07c-7.653,7.653-2.233,20.739,8.591,20.739h25.989c3.717,0,6.731,3.014,6.731,6.731v22.295    c0,33.317,27.26,60.577,60.577,60.577c12.99,0,23.557,10.527,23.557,23.557v19.352c0,3.95,3.202,7.152,7.152,7.152h111.793    c4.008,0,7.256-3.249,7.256-7.256l0-49.631c0-19.458,6.485-38.612,19.36-53.202c20.414-23.131,32.804-53.509,32.804-86.786    v-57.212C314.916,122.174,256.154,63.411,183.667,63.411z"/>
		<g>
			<path style="fill:#CCD2DB;" d="M30.982,288.345l18.07-18.07c14.88-14.88,23.24-35.063,23.24-56.107V194.66     c0-69.223,53.541-125.799,121.313-130.876c-3.281-0.246-6.595-0.373-9.939-0.373c-72.4,0-131.25,58.675-131.25,131.249v19.508     c0,21.044-8.36,41.226-23.24,56.107l-18.07,18.07c-7.654,7.653-2.233,20.739,8.59,20.739h19.875     C28.749,309.084,23.328,295.998,30.982,288.345z"/>
			<path style="fill:#CCD2DB;" d="M156.426,441.595v-19.352c0-13.03-10.567-23.557-23.557-23.557     c-33.317,0-60.577-27.26-60.577-60.577v-22.295c0-3.717-3.014-6.731-6.731-6.731H45.686c3.717,0,6.731,3.014,6.731,6.731v22.295     c0,33.317,27.26,60.577,60.577,60.577c12.99,0,23.557,10.526,23.557,23.557v19.352c0,3.95,3.202,7.152,7.152,7.152h19.875     C159.628,448.747,156.426,445.545,156.426,441.595z"/>
		</g>
		<path style="fill:#576574;" d="M183.483,131.478c-11.997,0.744-21.694,10.62-22.238,22.627    c-0.284,6.264,1.861,12.021,5.568,16.417c1.849,2.192,2.789,5.009,2.789,7.877v34.591c0,3.954,3.205,7.159,7.159,7.159h16.473    c3.954,0,7.159-3.205,7.159-7.159v-34.592c0-2.875,0.951-5.694,2.803-7.893c3.48-4.134,5.579-9.468,5.579-15.296    C208.776,141.574,197.301,130.621,183.483,131.478z"/>
		<path style="fill:#3E4B5A;" d="M189.602,212.989v-34.591c0-2.868-0.94-5.685-2.789-7.877c-3.708-4.396-5.852-10.153-5.569-16.417    c0.408-9.001,5.959-16.804,13.767-20.46c-3.471-1.615-7.394-2.423-11.53-2.167c-11.997,0.744-21.694,10.62-22.238,22.627    c-0.284,6.264,1.861,12.021,5.569,16.417c1.849,2.192,2.789,5.009,2.789,7.877v34.591c0,3.954,3.205,7.159,7.159,7.159h16.473    c0.61,0,1.198-0.084,1.763-0.228C191.899,219.133,189.602,216.333,189.602,212.989z"/>
		<path style="fill:#FECA57;" d="M381.491,143.817c0.494-4.556,2.157-8.786,4.675-12.386H251.412    c-8.29,0-15.423,6.371-15.813,14.651c-0.416,8.841,6.629,16.14,15.378,16.14c1.134,0,2.053,0.919,2.053,2.053v19.982    c0,3.383,2.743,6.126,6.126,6.126h13.92c3.383,0,6.126-2.743,6.126-6.126v-19.982c0-1.134,0.919-2.053,2.053-2.053h21.041    c1.134,0,2.053,0.919,2.053,2.053v19.982c0,3.383,2.743,6.126,6.126,6.126h13.92c3.383,0,6.126-2.743,6.126-6.126v-19.982    c0-1.134,0.919-2.053,2.053-2.053h53.593C382.594,157.101,380.747,150.686,381.491,143.817z"/>
		<path style="fill:#FECA57;" d="M384.491,143.817c0.494-4.556,2.157-8.786,4.675-12.386H251.412    c-8.29,0-15.423,6.371-15.813,14.651c-0.416,8.841,6.629,16.14,15.378,16.14c1.134,0,2.053,0.919,2.053,2.053v19.982    c0,3.383,2.743,6.126,6.126,6.126h13.92c3.383,0,6.126-2.743,6.126-6.126v-19.982c0-1.134,0.919-2.053,2.053-2.053h21.041    c1.134,0,2.053,0.919,2.053,2.053v19.982c0,3.383,2.743,6.126,6.126,6.126h13.92c3.383,0,6.126-2.743,6.126-6.126v-19.982    c0-1.134,0.919-2.053,2.053-2.053h56.593C385.594,157.101,383.747,150.686,384.491,143.817z"/>
		<g>
			<path style="fill:#F4B537;" d="M273.03,184.257v-19.982c0-1.134-0.919-2.053-2.053-2.053c-8.75,0-15.795-7.299-15.378-16.14     c0.39-8.28,7.523-14.651,15.813-14.651h-20c-8.29,0-15.423,6.371-15.813,14.651c-0.417,8.842,6.629,16.14,15.378,16.14     c1.134,0,2.053,0.919,2.053,2.053v19.982c0,3.383,2.743,6.126,6.126,6.126h13.92c1.107,0,2.143-0.298,3.04-0.812     C274.274,188.515,273.03,186.533,273.03,184.257z"/>
			<path style="fill:#F4B537;" d="M324.349,184.257v-19.982c0-1.134-0.919-2.053-2.053-2.053h-20c1.134,0,2.053,0.919,2.053,2.053     v19.982c0,3.383,2.743,6.126,6.126,6.126h13.92c1.107,0,2.143-0.298,3.04-0.812C325.593,188.515,324.349,186.533,324.349,184.257     z"/>
		</g>
		<path style="fill:#F4B537;" d="M460.359,84.217c-14.781,0-27.865,10.308-35.874,26.133c-2.974,5.877-9.074,9.673-15.659,9.539    c-1.294-0.026-2.612,0.039-3.945,0.203c-12.26,1.504-22.059,11.444-23.389,23.725c-1.758,16.228,10.908,29.952,26.779,29.952    c0.041,0,0.082,0,0.123,0c6.725-0.031,13.03,3.468,16.061,9.471c8.007,15.86,21.105,26.195,35.905,26.195    c24.375,0,44.134-28.031,44.134-62.609S484.733,84.217,460.359,84.217z M462.069,165.985c-10.581,0-19.159-8.577-19.159-19.159    s8.578-19.159,19.159-19.159s19.159,8.577,19.159,19.159S472.651,165.985,462.069,165.985z"/>
		<g>
			<path style="fill:#E59D1F;" d="M444.453,183.24c-3.031-6.003-9.335-9.502-16.061-9.471c-0.041,0-0.082,0-0.123,0     c-15.871,0-28.537-13.724-26.779-29.952c1.331-12.281,11.129-22.22,23.39-23.725c1.334-0.164,2.651-0.229,3.945-0.203     c6.585,0.134,12.684-3.662,15.659-9.539c6.142-12.135,15.269-21.019,25.855-24.505c-3.209-1.053-6.546-1.628-9.981-1.628     c-14.781,0-27.865,10.308-35.874,26.133c-2.974,5.877-9.073,9.673-15.659,9.539c-1.294-0.026-2.612,0.039-3.945,0.203     c-12.26,1.504-22.059,11.444-23.39,23.725c-1.758,16.228,10.908,29.952,26.779,29.952c0.041,0,0.082,0,0.123,0     c6.725-0.031,13.03,3.468,16.061,9.471c8.007,15.86,21.105,26.195,35.906,26.195c3.434,0,6.772-0.575,9.981-1.628     C459.735,204.315,450.595,195.407,444.453,183.24z"/>
		</g>
	</g>
	<g>
		<path d="M176.735,227.552h16.474c8.083,0,14.659-6.576,14.659-14.659v-34.591c0-1.179,0.369-2.267,1.04-3.063    c4.734-5.623,7.342-12.771,7.342-20.126c0-17.573-14.726-32.349-33.257-31.216c-15.7,0.973-28.555,14.052-29.266,29.773    c-0.358,7.897,2.244,15.566,7.327,21.592c0.659,0.781,1.021,1.861,1.021,3.042v34.59    C162.076,220.976,168.652,227.552,176.735,227.552z M183.921,138.867c9.491-0.584,17.329,6.889,17.329,16.245    c0,3.826-1.355,7.542-3.817,10.466c-2.943,3.497-4.564,8.016-4.564,12.723v34.25h-15.792v-34.25c0-4.715-1.617-9.23-4.556-12.713    c-2.643-3.133-3.995-7.125-3.809-11.242C169.082,146.173,175.762,139.373,183.921,138.867z"/>
		<path d="M462.043,173.389c14.7,0,26.659-11.959,26.659-26.659s-11.959-26.659-26.659-26.659s-26.659,11.959-26.659,26.659    S447.342,173.389,462.043,173.389z M462.043,135.071c6.429,0,11.659,5.23,11.659,11.659s-5.23,11.659-11.659,11.659    s-11.659-5.23-11.659-11.659S455.614,135.071,462.043,135.071z"/>
		<path d="M207.471,448.651c0,4.142,3.357,7.5,7.5,7.5h40.498c8.137,0,14.757-6.62,14.757-14.756v-49.63    c0-18.332,6.209-35.464,17.483-48.24c18.959-21.483,30.652-47.843,33.815-76.229c0.458-4.117-2.507-7.826-6.623-8.285    c-4.136-0.457-7.826,2.507-8.285,6.624c-2.819,25.305-13.246,48.807-30.153,67.966c-13.695,15.518-21.237,36.175-21.237,58.165    v49.387h-40.255C210.829,441.151,207.471,444.509,207.471,448.651z"/>
		<path d="M19.671,316.488H44.89v21.526c0,37.538,30.539,68.077,68.077,68.077c8.854,0,16.057,7.203,16.057,16.057V441.5    c0,8.079,6.573,14.651,14.652,14.651h36.295c4.143,0,7.5-3.358,7.5-7.5s-3.357-7.5-7.5-7.5h-35.947v-19.003    c0-17.125-13.932-31.057-31.057-31.057c-29.267,0-53.077-23.81-53.077-53.077v-22.295c0-7.847-6.384-14.231-14.23-14.231H19.671    c-4.153,0-6.227-4.997-3.287-7.936l18.07-18.07c16.402-16.402,25.436-38.211,25.436-61.41v-19.508    c0-68.235,55.514-123.749,123.75-123.749c40.719,0,78.546,20.025,101.553,53.019h-33.807c-12.816,0-23.363,10.1-23.331,22.979    c0.028,10.725,7.406,19.673,17.448,22.148v15.199c0,7.514,6.112,13.626,13.626,13.626h13.921c7.514,0,13.626-6.113,13.626-13.626    v-14.535h10.146v14.535c0,6.325,4.43,11.864,10.567,13.28v34.024c0,4.142,3.357,7.5,7.5,7.5s7.5-3.358,7.5-7.5v-33.677h1.979    c7.514,0,13.627-6.113,13.627-13.626v-14.535h44.521c0.03,0.034,0.057,0.069,0.088,0.103c6.527,7.272,15.872,11.444,25.64,11.444    h0.156c0.019,0,0.037,0,0.056,0c4.057,0,7.607,2.047,9.275,5.352c9.583,18.982,25.509,30.315,42.602,30.315    c29.427,0,51.634-32.197,51.634-70.109c0-37.952-22.236-70.109-51.634-70.109c-17.068,0-32.981,11.307-42.565,30.247    c-1.706,3.371-5.141,5.53-8.818,5.427c-1.653-0.032-3.35,0.053-5.008,0.257c-8.416,1.032-15.944,5.208-21.372,11.282h-79.55    c-24.963-42.069-70.294-68.019-119.379-68.019c-76.507,0-138.75,62.243-138.75,138.749v19.508    c0,19.191-7.473,37.234-21.043,50.803l-18.07,18.07C-6.572,295.295,2.187,316.488,19.671,316.488z M408.647,127.292    c9.373,0.201,18.21-5.167,22.503-13.651c21.621-42.718,65.816-18.566,65.816,33.089c0,15.19-4.104,29.378-11.557,39.95    c-16.391,23.254-41.319,18.771-54.288-6.916c-4.089-8.101-12.488-13.592-22.878-13.592c-10.762,0-19.566-8.784-19.436-19.682    C388.944,135.853,397.688,127.046,408.647,127.292z M374.708,138.834c-0.607,2.579-0.869,5.012-0.894,7.486    c-0.026,2.669,0.251,5.492,0.913,8.306h-42.178c-5.268,0-9.553,4.285-9.553,9.553v18.609c-5.387,0-9.906,0-11.173,0v-18.608    c0-5.268-4.285-9.553-9.553-9.553h-21.041c-5.268,0-9.553,4.285-9.553,9.553v18.608h-11.173v-18.608    c0-5.268-4.285-9.553-9.553-9.553c-4.616,0-8.094-3.873-7.886-8.288c0.195-4.14,3.929-7.503,8.321-7.503L374.708,138.834z"/>
	</g>
</g>















</svg>
